<svg xmlns="http://www.w3.org/2000/svg" viewBox="0 0 64 64">
  <rect width="64" height="64" rx="12" fill="#020711"/>
  <path d="M32 55V30M32 42C25 31 18 26 8 24M32 37C39 26 47 20 57 18M32 49C24 49 18 52 12 57M32 49C41 49 48 52 55 57" fill="none" stroke="#73e9ff" stroke-width="2.5" stroke-linecap="round"/>
  <path d="M32 55C25 56 19 59 14 62M32 55C40 56 46 59 52 62" fill="none" stroke="#e7b85f" stroke-width="2" stroke-linecap="round"/>
  <circle cx="8" cy="24" r="3" fill="#78f4df"/>
  <circle cx="57" cy="18" r="3" fill="#74a6ff"/>
  <circle cx="32" cy="29" r="3" fill="#73e9ff"/>
</svg>
